# xmcd
#
# Track frame offsets: 
#        150
#        20980
#        38638
#        48942
#        60192
#        72337
#        80347
#        97308
#        109502
#        124123
#        138890
#        153189
#        169495
#
# Disc length: 2398 seconds
#
# Revision: 0
# Processed by: cddbd v1.5.1PL2 Copyright (c) Steve Scherf et al.
# Submitted via: ExactAudioCopy v0.95b4
#
DISCID=a9095c0d
DTITLE=Various Artist - NEW TREND ws Beeline Новая Гитарная Музыка Май '06
DYEAR=2006
DGENRE=Blues
TTITLE0=Electrelane - Bells
TTITLE1=Voxtrot - Mothers, Sisters, Daughters and Wives
TTITLE2=Love Is All - Used Goods
TTITLE3=Sailboats Are White - Led Eye
TTITLE4=Sons And Daughters - Dance Me In
TTITLE5=Clinic - Tusk
TTITLE6=Black Mountain - No Satisfaction
TTITLE7=Archie Bronson Outfit - Kink
TTITLE8=Calla - It Dawned On Me
TTITLE9=Clearlake - I Hate It That I Got What I Wanted
TTITLE10=Wolf Parade - It's a Curse
TTITLE11=Sleater-Kinney - Night Light
TTITLE12=Deerhoof - Twin Killers
EXTD=
EXTT0=
EXTT1=
EXTT2=
EXTT3=
EXTT4=
EXTT5=
EXTT6=
EXTT7=
EXTT8=
EXTT9=
EXTT10=
EXTT11=
EXTT12=
PLAYORDER=
